<svg width="28" height="28" viewBox="0 0 28 28" fill="none" xmlns="http://www.w3.org/2000/svg">
<path d="M3.2 19.7143H24.8C25.4627 19.7143 26 20.226 26 20.8571C26 21.4432 25.5368 21.9263 24.9399 21.9923L24.8 22H3.2C2.53726 22 2 21.4883 2 20.8571C2 20.271 2.46325 19.788 3.06005 19.722L3.2 19.7143H24.8H3.2ZM3.19986 12.8571L24.7999 12.8547C25.4626 12.8546 26 13.3662 26 13.9974C26 14.5835 25.5369 15.0666 24.9401 15.1327L24.8001 15.1404L3.20014 15.1429C2.5374 15.1429 2 14.6313 2 14.0001C2 13.414 2.46312 12.9309 3.05991 12.8648L3.19986 12.8571L24.7999 12.8547L3.19986 12.8571ZM3.2 6H24.8C25.4627 6 26 6.51167 26 7.14286C26 7.72896 25.5368 8.21201 24.9399 8.27803L24.8 8.28571H3.2C2.53726 8.28571 2 7.77404 2 7.14286C2 6.55676 2.46325 6.07371 3.06005 6.00769L3.2 6H24.8H3.2Z" fill="#001A69"/>
</svg>
